<svg width="63" height="51" viewBox="0 0 63 51" fill="none" xmlns="http://www.w3.org/2000/svg">
<path d="M61.209 41.5752V20.7779C61.209 20.6669 61.1993 20.551 61.1752 20.44C60.9531 19.4021 60.509 18.4028 59.8862 17.5531C59.3311 16.7903 58.6503 16.1483 57.8538 15.6366C57.7766 15.5883 57.6993 15.5448 57.6172 15.511L47.1414 11.0359C46.2435 10.5917 44.8048 10.1041 43.0572 10.3214C42.2269 10.4228 41.4207 10.6738 40.6628 11.0648C40.5614 11.1179 40.4697 11.1807 40.3828 11.2483L28.1207 21.2752C27.329 21.8255 26.2379 22.8007 25.5669 24.3455C25.3062 24.949 25.1276 25.5862 25.0407 26.2428C25.031 26.3152 25.0262 26.3828 25.0262 26.4552V46.5428L20.2566 44.9883V24.2924C20.2566 24.2152 20.2517 24.1428 20.2421 24.0703C20.1745 23.5779 20.1938 23.0855 20.3 22.6028C20.3917 22.1924 20.5462 21.7966 20.7586 21.4345L35.9269 9.54897C36.3904 9.1869 36.6221 8.59793 36.5304 8.01862C36.4386 7.43931 36.0379 6.95173 35.4876 6.74897L27.1166 3.68828C26.5759 3.49035 25.9628 3.59655 25.5186 3.96828L11.2966 15.849C11.2531 15.8828 11.2145 15.9214 11.1759 15.96C10.4421 16.7131 9.83862 17.5772 9.38483 18.5235C8.98414 19.3586 8.71379 20.2517 8.56897 21.169C8.55448 21.251 8.54966 21.3331 8.54966 21.4152L8.53035 41.3435L3.26345 39.5041L3.24414 19.5614C3.26828 18.8276 3.43241 18.1131 3.7269 17.4421C4.07448 16.6503 4.60553 15.9359 5.25725 15.3807L18.4317 4.91931C19.9476 5.16552 21.2897 3.96828 21.2897 2.47655C21.2897 1.11035 20.1793 0 18.8131 0C17.4469 0 16.3607 1.09104 16.3414 2.43793L3.22001 12.8559L3.18139 12.8897C2.13863 13.7731 1.29863 14.8979 0.75311 16.1386C0.289661 17.1959 0.0337931 18.3159 0 19.4745V19.5179L0.0193145 40.6579C0.0193145 41.3483 0.458625 41.9614 1.10552 42.1883L9.61173 45.1572C10.1041 45.331 10.6545 45.2538 11.0841 44.9497C11.5138 44.6455 11.7648 44.1531 11.7697 43.6269L11.7938 21.5455C11.8904 20.9807 12.0641 20.4352 12.3103 19.9186C12.5952 19.3152 12.9766 18.7697 13.4352 18.2821L26.8752 7.0531L31.6304 8.79104L18.5331 19.0545C18.3979 19.1607 18.2772 19.291 18.1807 19.4359C17.6835 20.189 17.331 21.0145 17.1331 21.8931C16.9497 22.7186 16.9062 23.5586 17.0124 24.3986V46.1662C17.0124 46.871 17.4614 47.489 18.1324 47.711L26.1462 50.3228C26.3103 50.3759 26.4793 50.4 26.6483 50.4C26.991 50.4 27.3241 50.2938 27.5993 50.091C28.0193 49.7869 28.2704 49.2945 28.2704 48.7779V26.571C28.3235 26.2476 28.4104 25.9338 28.5407 25.6393C28.9124 24.7848 29.5352 24.2345 29.9938 23.9255C30.0324 23.8966 30.071 23.8724 30.1048 23.8386L42.2945 13.8745C42.6662 13.7007 43.0524 13.5897 43.4531 13.5414C44.4186 13.4255 45.22 13.7007 45.7221 13.9517C45.751 13.9662 45.7848 13.9807 45.8138 13.9952L56.2124 18.4366C56.6228 18.7166 56.98 19.0641 57.2697 19.4648C57.5931 19.909 57.8345 20.4304 57.9697 20.9662V41.5269C57.4145 41.9952 57.091 42.6855 57.091 43.4193C57.091 44.7855 58.2014 45.8959 59.5676 45.8959C60.9338 45.8959 62.0393 44.7855 62.0393 43.4193C62.0393 42.7145 61.7352 42.0435 61.2138 41.58L61.209 41.5752ZM59.5579 42.8255C59.8814 42.8255 60.1469 43.091 60.1469 43.4145C60.1469 43.7379 59.8814 44.0035 59.5579 44.0035C59.2345 44.0035 58.969 43.7379 58.969 43.4145C58.969 43.091 59.2345 42.8255 59.5579 42.8255ZM18.8083 3.0607C18.4848 3.0607 18.2193 2.79518 18.2193 2.47173C18.2193 2.14828 18.4848 1.88276 18.8083 1.88276C19.1317 1.88276 19.3972 2.14828 19.3972 2.47173C19.3972 2.79518 19.1317 3.0607 18.8083 3.0607Z" fill="#9EBB27"/>
</svg>
