<svg width="40" height="33" viewBox="0 0 40 33" fill="none" xmlns="http://www.w3.org/2000/svg">
<path d="M39.4646 26.8057V13.3966C39.4646 13.325 39.4584 13.2503 39.4428 13.1787C39.2997 12.5095 39.0133 11.8652 38.6118 11.3174C38.2538 10.8256 37.815 10.4116 37.3014 10.0817C37.2516 10.0506 37.2018 10.0226 37.1489 10.0008L30.3945 7.1154C29.8156 6.82904 28.888 6.51467 27.7613 6.65474C27.2259 6.7201 26.7061 6.88195 26.2174 7.13407C26.1521 7.16831 26.0929 7.20878 26.0369 7.25235L18.1309 13.7172C17.6204 14.0721 16.917 14.7008 16.4843 15.6968C16.3162 16.0859 16.2011 16.4968 16.1451 16.9201C16.1388 16.9668 16.1357 17.0103 16.1357 17.057V30.0086L13.0605 29.0063V15.6626C13.0605 15.6128 13.0574 15.5661 13.0511 15.5194C13.0076 15.2019 13.02 14.8844 13.0885 14.5732C13.1476 14.3086 13.2472 14.0534 13.3842 13.8199L23.164 6.15672C23.4628 5.92327 23.6122 5.54354 23.553 5.17003C23.4939 4.79651 23.2355 4.48214 22.8807 4.35142L17.4835 2.37802C17.1349 2.25041 16.7396 2.31889 16.4532 2.55856L7.28348 10.2187C7.25547 10.2404 7.23057 10.2654 7.20567 10.2903C6.73255 10.7758 6.34348 11.333 6.05089 11.943C5.79255 12.4815 5.61824 13.0574 5.52486 13.6487C5.51552 13.7017 5.51241 13.7546 5.51241 13.8075L5.49997 26.6563L2.10412 25.4704L2.09167 12.6122C2.10723 12.1391 2.21306 11.6785 2.40293 11.2458C2.62703 10.7354 2.96942 10.2747 3.38962 9.91674L11.8839 3.17174C12.8613 3.33048 13.7266 2.55856 13.7266 1.59676C13.7266 0.715899 13.0107 0 12.1298 0C11.2489 0 10.5486 0.703448 10.5361 1.57186L2.07611 8.28885L2.05121 8.31064C1.37888 8.88025 0.837293 9.60548 0.485569 10.4054C0.18676 11.0871 0.0217882 11.8092 0 12.5562V12.5842L0.0124531 26.2143C0.0124531 26.6594 0.295699 27.0547 0.712788 27.201L6.19718 29.1152C6.51467 29.2273 6.86951 29.1775 7.14653 28.9814C7.42355 28.7853 7.5854 28.4678 7.58852 28.1286L7.60408 13.8915C7.66633 13.5274 7.77838 13.1756 7.93713 12.8426C8.12077 12.4535 8.36666 12.1018 8.66236 11.7874L17.3278 4.54751L20.3937 5.66804L11.9493 12.2854C11.8621 12.3539 11.7843 12.4379 11.722 12.5313C11.4014 13.0169 11.1742 13.5491 11.0466 14.1156C10.9283 14.6479 10.9003 15.1895 10.9688 15.7311V29.7658C10.9688 30.2202 11.2583 30.6186 11.6909 30.7618L16.8578 32.4457C16.9637 32.48 17.0726 32.4955 17.1815 32.4955C17.4025 32.4955 17.6173 32.427 17.7947 32.2963C18.0655 32.1002 18.2274 31.7827 18.2274 31.4497V17.1317C18.2616 16.9232 18.3176 16.7209 18.4017 16.531C18.6414 15.9801 19.0429 15.6252 19.3386 15.426C19.3635 15.4074 19.3884 15.3918 19.4102 15.37L27.2695 8.94561C27.5091 8.83356 27.7582 8.76196 28.0165 8.73084C28.639 8.65614 29.1557 8.83356 29.4794 8.99541C29.4981 9.00475 29.5199 9.01409 29.5386 9.02342L36.2431 11.887C36.5077 12.0675 36.738 12.2917 36.9248 12.55C37.1333 12.8364 37.2889 13.1725 37.3761 13.518V26.7746C37.0181 27.0765 36.8096 27.5216 36.8096 27.9947C36.8096 28.8756 37.5255 29.5915 38.4064 29.5915C39.2872 29.5915 40 28.8756 40 27.9947C40 27.5403 39.8039 27.1076 39.4678 26.8088L39.4646 26.8057ZM38.4001 27.6119C38.6087 27.6119 38.7799 27.7831 38.7799 27.9916C38.7799 28.2001 38.6087 28.3713 38.4001 28.3713C38.1916 28.3713 38.0204 28.2001 38.0204 27.9916C38.0204 27.7831 38.1916 27.6119 38.4001 27.6119ZM12.1267 1.97339C11.9181 1.97339 11.7469 1.8022 11.7469 1.59365C11.7469 1.38511 11.9181 1.21392 12.1267 1.21392C12.3352 1.21392 12.5064 1.38511 12.5064 1.59365C12.5064 1.8022 12.3352 1.97339 12.1267 1.97339Z" fill="white"/>
</svg>
